<svg width="58" height="50" viewBox="0 0 58 50" fill="none" xmlns="http://www.w3.org/2000/svg">
<g id="Group">
<path id="Vector" d="M38.2543 17.8738C35.7457 16.9062 32.9175 17.3796 30.8595 19.1099L28.8451 20.8039L26.8307 19.1026C24.7736 17.3796 21.9373 16.9062 19.4359 17.8665C16.9273 18.8332 15.1459 21.0806 14.7754 23.7422V23.7713C14.1501 29.4503 14.222 35.0128 14.993 40.2922C14.993 40.2995 14.993 40.3068 15.0003 40.3141V40.3368C15.3489 42.2629 17.0365 43.6374 18.9562 43.6374C19.1164 43.6374 19.2693 43.6292 19.4286 43.6082C19.8428 43.5573 20.2287 43.449 20.5919 43.2887L20.7303 48.7857C20.7457 49.4547 21.2983 49.9927 21.9664 49.9927H21.9955C22.6791 49.9781 23.2171 49.4101 23.2025 48.7275L22.9768 39.7261C22.9768 39.6168 22.9768 39.5076 22.9695 39.392C22.9695 39.3701 22.9622 39.3556 22.9622 39.341L22.6354 26.4274C22.6208 25.7438 22.0538 25.2058 21.3702 25.2204C20.6866 25.235 20.1486 25.802 20.1632 26.4856L20.4982 39.7124C20.4545 40.4542 19.8874 41.0732 19.1383 41.1597C18.3309 41.2534 17.589 40.7082 17.437 39.909C16.7015 34.8553 16.6296 29.5249 17.2331 24.0717C17.4798 22.3122 18.6658 20.8148 20.3307 20.174C21.9955 19.5341 23.8797 19.8472 25.246 20.996L28.0523 23.3662C28.0596 23.3744 28.0741 23.3817 28.0814 23.389C28.096 23.4036 28.1105 23.4108 28.1242 23.4245C28.146 23.439 28.1679 23.4536 28.1897 23.4682C28.2043 23.4755 28.2116 23.4827 28.2261 23.49C28.2625 23.5119 28.299 23.5264 28.3345 23.5483C28.3399 23.5483 28.3451 23.5507 28.3499 23.5556C28.3854 23.5701 28.4155 23.5847 28.451 23.5993C28.4582 23.5993 28.4728 23.6065 28.4801 23.6065C28.5092 23.6138 28.5374 23.6211 28.5675 23.6284C28.582 23.6284 28.5884 23.6357 28.603 23.6357C28.6321 23.6439 28.6612 23.6439 28.6986 23.6511C28.7058 23.6511 28.7195 23.6511 28.7277 23.6584C28.7714 23.6657 28.8069 23.6657 28.8506 23.6657C28.8943 23.6657 28.9307 23.6657 28.9744 23.6584C28.9816 23.6584 28.9962 23.6584 29.0035 23.6511C29.0326 23.6439 29.0617 23.6439 29.0981 23.6357C29.1127 23.6357 29.12 23.6284 29.1346 23.6284C29.1637 23.6211 29.1928 23.6138 29.2219 23.6065C29.2292 23.6065 29.2438 23.5993 29.2511 23.5993C29.2875 23.5847 29.3157 23.5774 29.353 23.5556C29.3579 23.5556 29.3627 23.5531 29.3676 23.5483C29.404 23.5337 29.4404 23.5119 29.4759 23.49C29.4914 23.4827 29.505 23.4755 29.5132 23.4682C29.5342 23.4536 29.556 23.439 29.5778 23.4245C29.5924 23.4172 29.607 23.4026 29.6215 23.389C29.6288 23.3817 29.6434 23.3744 29.6507 23.3662L32.4579 20.996C33.8241 19.8472 35.7083 19.5341 37.3732 20.174C39.038 20.8139 40.2232 22.3122 40.4698 24.079C41.2053 29.3647 41.1316 34.6869 40.2668 39.8935C40.1212 40.6936 39.373 41.2462 38.5583 41.1515C37.7509 41.0568 37.1474 40.3441 37.1911 39.5303C37.1984 39.443 37.1911 39.3483 37.1766 39.2682L37.497 26.6522C37.5115 25.9686 36.9736 25.4024 36.29 25.387C35.6064 25.3724 35.0384 25.9104 35.0238 26.594L34.464 48.7356C34.4495 49.4192 34.9883 49.9863 35.671 50H35.7002C36.3692 50 36.9217 49.4693 36.9363 48.793L37.0746 43.2815C37.446 43.449 37.8383 43.5646 38.2607 43.6155C38.42 43.6374 38.5811 43.6447 38.7331 43.6447C40.6455 43.6447 42.3404 42.2702 42.6881 40.3441V40.3295C43.6047 34.8681 43.6775 29.2919 42.9138 23.7504C42.5434 21.0888 40.762 18.8423 38.2534 17.8756L38.2543 17.8738Z" fill="#00304D"/>
<path id="Vector_2" d="M28.8586 16.6365C32.4804 16.6365 35.4251 13.6918 35.4251 10.0709C35.4251 6.44995 32.4804 3.50439 28.8586 3.50439C25.2367 3.50439 22.293 6.44903 22.293 10.0709C22.2857 13.6846 25.2385 16.6365 28.8586 16.6365ZM28.8586 5.96934C31.1205 5.96934 32.9529 7.80894 32.9529 10.0636C32.9529 12.3183 31.1133 14.157 28.8586 14.157C26.6039 14.157 24.7652 12.3174 24.7652 10.0636C24.7652 7.80985 26.5975 5.96934 28.8586 5.96934Z" fill="#00304D"/>
<path id="Vector_3" d="M15.5383 19.7279C15.9816 19.2036 15.9088 18.4262 15.3936 17.982L12.5791 15.6118C10.5219 13.8887 7.68471 13.4163 5.18427 14.3757C2.67564 15.3423 0.894292 17.5897 0.522912 20.2513C-0.240783 25.7919 -0.167967 31.369 0.741368 36.8296V36.8441C1.08999 38.772 2.77759 40.1465 4.69729 40.1465C4.8575 40.1465 5.01042 40.1383 5.16971 40.1165C5.58478 40.0664 5.96981 39.9562 6.333 39.797L6.47136 45.2648C6.48592 45.9338 7.03753 46.4718 7.70656 46.4718H7.73569C8.41928 46.4572 8.95724 45.8901 8.94267 45.2065L8.71693 36.2261C8.71693 36.1177 8.71693 36.0158 8.70965 35.9066C8.70965 35.892 8.70237 35.8774 8.70237 35.8565L8.38196 22.9274C8.3674 22.2438 7.80123 21.7058 7.11763 21.7204C6.43404 21.735 5.89609 22.303 5.91065 22.9857L6.24471 36.2124C6.20102 36.9543 5.63393 37.5723 4.8848 37.667C4.07742 37.7616 3.32828 37.2091 3.17627 36.409C2.31063 31.2024 2.23781 25.8802 2.97238 20.5944C3.21905 18.8277 4.4051 17.3294 6.06994 16.6895C7.73478 16.0496 9.61899 16.3618 10.9853 17.5105L13.7925 19.8808C14.0328 20.0629 14.3158 20.1648 14.5926 20.1648C14.9412 20.1648 15.2907 20.0119 15.5374 19.7288L15.5383 19.7279Z" fill="#00304D"/>
<path id="Vector_4" d="M14.608 13.1321C18.229 13.1321 21.1736 10.1865 21.1736 6.56559C21.1736 2.94464 18.229 0 14.608 0C10.9871 0 8.0415 2.94464 8.0415 6.56559C8.0415 10.1865 10.9871 13.1321 14.608 13.1321ZM14.608 2.47222C16.8691 2.47222 18.7014 4.31183 18.7014 6.56559C18.7014 8.81936 16.8618 10.6599 14.608 10.6599C12.3542 10.6599 10.5137 8.82027 10.5137 6.56559C10.5137 4.31092 12.3533 2.47222 14.608 2.47222Z" fill="#00304D"/>
<path id="Vector_5" d="M43.1041 13.1321C46.726 13.1321 49.6697 10.1865 49.6697 6.56559C49.6697 2.94464 46.726 0 43.1041 0C39.4822 0 36.5376 2.94464 36.5376 6.56559C36.5376 10.1865 39.4822 13.1321 43.1041 13.1321ZM43.1041 2.47222C45.3661 2.47222 47.1984 4.31183 47.1984 6.56559C47.1984 8.81936 45.3579 10.6599 43.1041 10.6599C40.8503 10.6599 39.0098 8.82027 39.0098 6.56559C39.0098 4.31092 40.8421 2.47222 43.1041 2.47222Z" fill="#00304D"/>
<path id="Vector_6" d="M57.1594 20.2511C56.7889 17.5895 55.0076 15.3421 52.4989 14.3754C49.9903 13.4088 47.1612 13.8812 45.1041 15.6116L42.2905 17.9818C41.7662 18.4251 41.7016 19.2034 42.1449 19.7277C42.3925 20.0181 42.7411 20.1637 43.0906 20.1637C43.3746 20.1637 43.6577 20.069 43.8835 19.8724L46.6897 17.5021C48.056 16.3534 49.9402 16.0412 51.6051 16.6811C53.2699 17.3201 54.455 18.8183 54.7026 20.5851C55.4372 25.8718 55.3644 31.194 54.4996 36.4006C54.354 37.1998 53.6058 37.7533 52.7902 37.6577C51.9837 37.5639 51.3802 36.8503 51.4239 36.0365C51.4312 35.9428 51.4239 35.8481 51.4094 35.7607L51.7289 22.9854C51.7443 22.3019 51.2064 21.7348 50.5228 21.7202C49.8383 21.6993 49.2721 22.2445 49.2575 22.9272L48.6977 45.2063C48.6823 45.8899 49.2202 46.457 49.9038 46.4716H49.9339C50.6029 46.4716 51.1554 45.9409 51.1691 45.2646L51.3074 39.7822C51.6779 39.9488 52.0775 40.0662 52.4998 40.1162C52.66 40.1381 52.8193 40.1463 52.9723 40.1463C54.8847 40.1463 56.5795 38.7718 56.9282 36.8439V36.8294C57.8584 31.3688 57.9313 25.7917 57.1603 20.2511H57.1594Z" fill="#00304D"/>
</g>
</svg>
