<svg width="56" height="50" viewBox="0 0 56 50" fill="none" xmlns="http://www.w3.org/2000/svg">
<g id="Group">
<path id="Vector" d="M54.8189 14.7724C54.7816 14.4647 54.6259 14.1907 54.381 14.0004C54.1362 13.8102 53.8331 13.7274 53.5245 13.7665C51.5292 14.0232 49.9853 15.0327 49.0414 15.8347L48.3869 16.3899L48.2804 15.5379C48.2158 15.0218 48.1311 14.5011 48.0282 13.9895L47.9581 13.6409L48.2767 13.4825C49.7332 12.7588 50.8528 11.5746 51.4309 10.1491C52.2738 8.11734 52.0025 5.60772 50.7236 3.59692C49.979 2.42539 49.1788 1.34763 48.3432 0.393661C47.9235 -0.0851433 47.1926 -0.134298 46.7129 0.285339C45.3293 1.49509 44.3953 3.25921 44.013 5.3847L44.0112 5.39744C43.6862 7.32813 43.8792 9.15506 44.5692 10.6807C48.2713 18.8504 45.3011 28.6568 37.6602 33.4913C37.267 33.7398 36.9447 34.0848 36.7272 34.4898L36.5961 34.7338H29.0035V26.8918L35.38 30.2024C35.7759 30.4082 36.2283 30.3736 36.5906 30.1105C36.9529 29.8474 37.1259 29.4278 37.0521 28.9872L35.6612 20.6154L41.7064 14.6604C42.0241 14.3473 42.1315 13.9058 41.9931 13.4798C41.8547 13.0538 41.5088 12.7607 41.0674 12.6942L32.7038 11.4344L28.9006 3.02618C28.7086 2.60199 28.3153 2.34893 27.8474 2.34893C27.3805 2.34893 26.9863 2.60199 26.7942 3.02618L22.9911 11.4344L14.6275 12.6942C14.186 12.7607 13.8401 13.0547 13.7018 13.4807C13.5634 13.9067 13.6708 14.3473 13.9885 14.6604L20.0336 20.6154L18.6427 28.9872C18.5699 29.4278 18.742 29.8474 19.1042 30.1105C19.4665 30.3736 19.9189 30.4082 20.3149 30.2024L26.6914 26.8918V34.7338H19.0742L18.9404 34.5026C18.5836 33.8872 17.9873 33.4758 17.4621 33.1126C14.0905 30.7868 11.5736 27.2987 10.3756 23.2916C9.13402 19.1362 9.41255 14.6531 11.1603 10.6679C11.8503 9.09316 12.036 7.31994 11.7128 5.39744L11.7101 5.38015C11.3296 3.25921 10.3957 1.496 9.01113 0.285339C8.53233 -0.133388 7.80046 -0.0851433 7.38082 0.393661C6.54519 1.34763 5.74415 2.42539 5.00137 3.59601C3.72152 5.60863 3.45025 8.11825 4.29135 10.1454C4.87028 11.5746 5.98992 12.7588 7.44636 13.4825L7.76496 13.6409L7.69487 13.9895C7.59109 14.5029 7.50644 15.0254 7.44272 15.5415L7.33712 16.3908L6.68355 15.8383C5.33908 14.7032 3.737 13.9668 2.17041 13.7656C1.86365 13.7265 1.55962 13.8093 1.31384 13.9995C1.06898 14.1898 0.913314 14.4638 0.875082 14.7715C0.697579 16.2215 0.638412 17.5232 0.693938 18.7503C0.760388 21.0979 1.98289 23.3262 3.88263 24.5733L3.89082 24.5788C5.15246 25.4444 6.71815 25.8094 8.35027 25.6001L8.70253 25.5546L8.83816 25.8832C9.03387 26.3583 9.25053 26.8344 9.48174 27.2977L9.86951 28.0724L9.01022 27.965C7.24429 27.7447 5.63673 27.985 4.23218 28.6805C3.95454 28.8179 3.74063 29.0655 3.64505 29.3595C3.54947 29.6535 3.57678 29.9794 3.72151 30.2534C4.27496 31.3066 4.93309 32.5236 5.75234 33.6369L5.76053 33.6478C7.12594 35.6231 9.32971 36.8028 11.6564 36.8028C13.152 36.8028 14.5838 36.2467 15.7972 35.1953L16.0712 34.9586L16.368 35.1662C16.6183 35.3418 16.7548 35.4483 16.8404 35.533L16.9706 35.6623L16.9769 35.8452C16.9769 35.858 16.9769 35.8725 16.9769 35.8889V47.6879H14.8942C14.257 47.6879 13.7382 48.2068 13.7382 48.844C13.7382 49.4811 14.257 50 14.8942 50H40.8034C41.4406 50 41.9594 49.4811 41.9594 48.844C41.9594 48.2068 41.4406 47.6879 40.8034 47.6879H38.7207V35.5567L38.9355 35.4201C39.0711 35.3337 39.2022 35.2463 39.3588 35.1416L39.6546 34.9431L39.9222 35.178C41.1393 36.2448 42.613 36.8101 44.1832 36.8119H44.2351C46.5854 36.8119 48.7792 35.5221 50.2557 33.2737C50.8892 32.3088 51.5446 31.3111 52.0544 30.2033C52.3174 29.6317 52.0817 28.9645 51.5182 28.685C50.121 27.9923 48.558 27.7629 46.7411 27.9832L45.8845 28.087L46.2714 27.315C46.5017 26.8544 46.7193 26.3738 46.9186 25.8859L47.0524 25.5573L47.4047 25.601C47.6896 25.6365 47.9763 25.6547 48.2576 25.6547C49.5466 25.6547 50.7964 25.2724 51.8714 24.5496C53.7438 23.2834 54.9436 21.0605 55.0009 18.7484V18.7384C55.0583 17.5214 54.9991 16.2233 54.8207 14.7696L54.8189 14.7724ZM7.379 23.3499C6.57523 23.3371 5.81788 23.1014 5.18888 22.6663L5.1634 22.649C3.89447 21.8215 3.047 20.265 3.00604 18.6829V18.6611C2.98055 18.1331 2.98055 17.5778 3.00604 17.0089L3.03607 16.3044L3.67054 16.6111C4.42607 16.9761 5.13699 17.4914 5.72776 18.1003C6.66626 19.0752 7.27613 20.1457 7.54193 21.2817L7.54831 21.3136C7.62933 21.8133 7.72763 22.3058 7.8396 22.7782L7.97705 23.3581L7.38082 23.349L7.379 23.3499ZM8.86183 10.1582C8.76989 10.3821 8.67522 10.6142 8.58602 10.8554L8.37847 11.4144L7.88784 11.0748C7.22607 10.617 6.7236 9.99615 6.43414 9.27885L6.42867 9.26611C5.86885 7.92254 6.06911 6.22579 6.95208 4.83671C7.25156 4.36519 7.56469 3.90459 7.88329 3.46857L8.31658 2.87507L8.66613 3.52137C9.02387 4.18314 9.28238 4.94504 9.4344 5.78522C9.78759 7.89615 9.33791 8.99485 8.86274 10.1573L8.86183 10.1582ZM13.7391 33.8563C13.1192 34.2522 12.3555 34.4898 11.5444 34.4898C10.2309 34.4898 8.79175 33.8672 7.62751 32.287C7.33622 31.8919 7.04584 31.4513 6.73999 30.9388L6.3686 30.3171L7.08862 30.2407C7.84779 30.1597 8.65065 30.2097 9.47536 30.3881C10.8572 30.7131 11.9622 31.2802 12.7687 32.0749L12.7842 32.0913C13.1192 32.4563 13.4633 32.8049 13.8074 33.129L14.2397 33.5368L13.7391 33.8572V33.8563ZM21.3008 27.0866L22.4113 20.4033C22.4732 20.0328 22.3494 19.6542 22.0827 19.3911L17.2564 14.6367L23.9569 13.6272C24.3465 13.569 24.6751 13.3196 24.8381 12.9609L27.8474 6.30772L30.8568 12.9609C31.0188 13.3196 31.3484 13.569 31.738 13.6272L38.4376 14.6367L33.6113 19.3911C33.3437 19.6551 33.2208 20.0338 33.2827 20.4042L34.3932 27.0875L33.5703 26.6606C29.0299 24.3029 28.4773 24.0162 28.4091 23.9807C28.0167 23.7923 27.659 23.7868 27.3149 23.9652L21.3017 27.0875L21.3008 27.0866ZM36.4068 47.6897H19.2863V37.0468H36.4068V47.6897ZM48.6545 30.2479L49.4 30.3208L49.0022 30.9552C48.7838 31.3039 48.5516 31.658 48.3268 32.0002C48.2513 32.1158 48.1757 32.2305 48.1011 32.3443L48.0865 32.3662C47.0634 33.7552 45.6142 34.5035 44.1841 34.5035C43.4222 34.5035 42.6649 34.2914 41.9804 33.8499L41.4788 33.5268L41.9157 33.1208C42.2862 32.7767 42.6458 32.418 42.9826 32.0548L43.0126 32.0257C44.4545 30.7313 46.6155 30.0504 48.6545 30.2489V30.2479ZM47.3446 11.4144L47.1371 10.8554C47.0579 10.6434 46.9705 10.4358 46.8777 10.2173C46.4307 9.16234 45.9246 7.96715 46.2878 5.7925V5.78613C46.4407 4.94504 46.6992 4.18405 47.057 3.52137L47.4065 2.87507L47.8389 3.46857C48.1575 3.9055 48.4715 4.36701 48.771 4.83853C49.6531 6.22579 49.8543 7.92254 49.2935 9.26611L49.289 9.27885C48.9995 9.99706 48.4961 10.6179 47.8344 11.0757L47.3437 11.4144H47.3446ZM52.6897 18.6501V18.6793C52.6552 20.2386 51.8268 21.7915 50.5779 22.6353C49.9007 23.0905 49.1561 23.3308 48.3659 23.349L47.7688 23.3626L47.9035 22.7801C47.9591 22.5388 48.0037 22.304 48.0501 22.0546C48.274 20.8612 48.5052 19.6269 49.9953 18.1031C50.5907 17.4895 51.2925 16.9743 52.0234 16.6157L52.6606 16.3025L52.6907 17.0116C52.7152 17.576 52.7143 18.1276 52.6897 18.6501Z" fill="#00304D"/>
<path id="Vector_2" d="M24.6077 43.5233H31.0852C31.7224 43.5233 32.2413 43.0044 32.2413 42.3672C32.2413 41.73 31.7224 41.2112 31.0852 41.2112H24.6077C23.9705 41.2112 23.4517 41.73 23.4517 42.3672C23.4517 43.0044 23.9705 43.5233 24.6077 43.5233Z" fill="#00304D"/>
</g>
</svg>
