<svg width="54" height="51" viewBox="0 0 54 51" fill="none" xmlns="http://www.w3.org/2000/svg">
<g id="Group">
<path id="Vector" d="M26.6626 41.882C27.2367 41.882 27.7021 41.4166 27.7021 40.8425C27.7021 40.2684 27.2367 39.803 26.6626 39.803C26.0885 39.803 25.623 40.2684 25.623 40.8425C25.623 41.4166 26.0885 41.882 26.6626 41.882Z" fill="#00304D"/>
<path id="Vector_2" d="M50.3959 40.4104C48.7747 38.8693 46.6475 37.9117 44.4546 37.7133C47.5222 37.2991 49.8953 34.6648 49.8953 31.4853C49.8953 28.019 47.0753 25.199 43.609 25.199C40.1427 25.199 37.3227 28.019 37.3227 31.4853C37.3227 34.663 39.693 37.2955 42.7579 37.7124C40.4385 37.9172 38.1966 38.9422 36.6027 40.5005C36.2686 40.0654 35.9072 39.6522 35.5195 39.2635C33.3894 37.1326 30.625 35.8646 27.652 35.6334C31.801 35.1427 35.0297 31.6045 35.0297 27.3263C35.0297 22.713 31.2767 18.9609 26.6644 18.9609C22.0521 18.9609 18.2991 22.714 18.2991 27.3263C18.2991 31.6082 21.5323 35.1482 25.6859 35.6343C23.8153 35.7808 21.9975 36.3425 20.3772 37.2855C18.9617 38.1084 17.7201 39.2061 16.7252 40.5005C15.1313 38.9422 12.8894 37.9163 10.57 37.7124C13.6349 37.2955 16.0052 34.663 16.0052 31.4853C16.0052 28.019 13.1852 25.199 9.7189 25.199C6.25261 25.199 3.43261 28.019 3.43261 31.4853C3.43261 34.6648 5.80567 37.2991 8.87327 37.7133C6.68044 37.9108 4.55315 38.8693 2.93196 40.4104C1.04043 42.2073 0 44.5758 0 47.0799V49.159C0 49.7598 0.486992 50.2477 1.08868 50.2477H52.2374C52.8382 50.2477 53.3261 49.7607 53.3261 49.159V47.0799C53.3261 44.5758 52.2856 42.2073 50.3959 40.4104ZM39.4991 31.4853C39.4991 29.2187 41.3424 27.3754 43.609 27.3754C45.8755 27.3754 47.7188 29.2187 47.7188 31.4853C47.7188 33.7518 45.8755 35.5951 43.609 35.5951C41.3424 35.5951 39.4991 33.7518 39.4991 31.4853ZM20.4737 27.3272C20.4737 23.9146 23.25 21.1383 26.6626 21.1383C30.0752 21.1383 32.8515 23.9146 32.8515 27.3272C32.8515 30.7398 30.0752 33.5161 26.6626 33.5161C23.25 33.5161 20.4737 30.7398 20.4737 27.3272ZM5.60723 31.4853C5.60723 29.2187 7.45052 27.3754 9.71708 27.3754C11.9836 27.3754 13.8269 29.2187 13.8269 31.4853C13.8269 33.7518 11.9836 35.5951 9.71708 35.5951C7.45052 35.5951 5.60723 33.7518 5.60723 31.4853ZM2.17644 47.0799C2.17644 43.1612 5.62999 39.8515 9.71708 39.8515C11.9427 39.8515 14.1492 40.8319 15.5237 42.3921C14.6234 44.1416 14.1473 46.0887 14.1392 48.0703H2.17644V47.079V47.0799ZM16.3156 48.0712C16.3247 46.2261 16.8235 44.4192 17.7602 42.8417C19.6189 39.715 23.0306 37.7725 26.6626 37.7725C29.4271 37.7725 32.0259 38.8484 33.9793 40.8037C34.591 41.4154 35.1244 42.1008 35.565 42.8417C36.5025 44.4192 37.0014 46.227 37.0105 48.0712H16.3156ZM51.1496 48.0712H39.1869C39.1796 46.0896 38.7027 44.1425 37.8024 42.393C39.1769 40.8328 41.3834 39.8524 43.609 39.8524C47.6961 39.8524 51.1496 43.1631 51.1496 47.0808V48.0721V48.0712Z" fill="#00304D"/>
<path id="Vector_3" d="M21.8182 10.5909L21.0563 15.0348C20.9862 15.4435 21.1546 15.8559 21.4896 16.0989C21.8246 16.3429 22.2688 16.3747 22.6356 16.1818L26.6253 14.0836L30.6159 16.1818C30.7752 16.2655 30.9491 16.3065 31.122 16.3065C31.3478 16.3065 31.5726 16.2364 31.762 16.0989C32.0969 15.855 32.2644 15.4426 32.1943 15.0339L31.4315 10.59L34.6602 7.44321C34.957 7.15374 35.0635 6.72136 34.9361 6.32722C34.8077 5.93308 34.4673 5.64634 34.0576 5.58626L29.5992 4.93907L27.603 0.857436C27.42 0.484228 27.0413 0.247559 26.6253 0.247559C26.2093 0.247559 25.8307 0.484228 25.6477 0.857436L23.6515 4.93907L19.193 5.58626C18.7834 5.64543 18.442 5.93308 18.3146 6.32722C18.1863 6.72136 18.2937 7.15374 18.5904 7.44321L21.8191 10.59L21.8182 10.5909ZM24.5326 7.01174C24.8885 6.95985 25.1962 6.73593 25.3537 6.41279L26.6244 3.81398L27.8952 6.41279C28.0535 6.73593 28.3603 6.95985 28.7162 7.01174L31.5608 7.425L29.5018 9.43122C29.2451 9.68155 29.1277 10.042 29.1886 10.3952L29.6756 13.2298L27.1305 11.8917C26.8138 11.7251 26.4351 11.7251 26.1174 11.8917L23.5732 13.2298L24.0593 10.3952C24.1203 10.042 24.0029 9.68155 23.7462 9.43213L21.6871 7.42591L24.5317 7.01265L24.5326 7.01174Z" fill="#00304D"/>
<path id="Vector_4" d="M40.5011 17.3615L39.9868 20.3618C39.9167 20.7696 40.0842 21.1828 40.4201 21.4259C40.7551 21.6698 41.1993 21.7017 41.5661 21.5087L44.2614 20.0923L46.9567 21.5087C47.116 21.5924 47.2899 21.6334 47.4628 21.6334C47.6886 21.6334 47.9134 21.5633 48.1028 21.4259C48.4377 21.1819 48.6052 20.7696 48.536 20.3618L48.0217 17.3615L50.2018 15.2361C50.4986 14.9466 50.6051 14.5142 50.4767 14.1201C50.3484 13.7259 50.0079 13.4392 49.5983 13.3791L46.5853 12.9413L45.2381 10.2114C45.0552 9.84001 44.6765 9.60425 44.2623 9.60425C43.8482 9.60425 43.4695 9.8391 43.2865 10.2105L41.9384 12.9413L38.9255 13.3791C38.5158 13.4383 38.1754 13.7259 38.0471 14.1201C37.9187 14.5142 38.0261 14.9466 38.322 15.2361L40.502 17.3615H40.5011ZM42.8168 15.014C43.1709 14.9621 43.4777 14.74 43.6361 14.4186L44.2605 13.1525L44.885 14.4177C45.0434 14.7391 45.3501 14.9621 45.7042 15.013L47.1015 15.216L46.0902 16.2019C45.8335 16.4522 45.7169 16.8117 45.777 17.1649L46.0155 18.5558L44.7657 17.8995C44.4489 17.7329 44.0703 17.7329 43.7535 17.8995L42.5028 18.5567L42.7413 17.1658C42.8023 16.8126 42.6849 16.4531 42.4282 16.2028L41.4169 15.2169L42.8141 15.014H42.8168Z" fill="#00304D"/>
<path id="Vector_5" d="M5.15494 17.3615L4.64064 20.3618C4.57055 20.7696 4.73804 21.1828 5.07392 21.4259C5.26326 21.5633 5.48809 21.6334 5.71384 21.6334C5.88679 21.6334 6.06065 21.5924 6.21995 21.5087L8.91524 20.0923L11.6105 21.5087C11.9774 21.7017 12.4216 21.6689 12.7566 21.4259C13.0915 21.1819 13.259 20.7696 13.1898 20.3618L12.6755 17.3615L14.8556 15.2361C15.1524 14.9466 15.2589 14.5142 15.1305 14.1201C15.0022 13.7259 14.6617 13.4392 14.2521 13.3791L11.2392 12.9413L9.89196 10.2114C9.70899 9.84001 9.33032 9.60425 8.91615 9.60425C8.50198 9.60425 8.12331 9.8391 7.94035 10.2105L6.59225 12.9413L3.57927 13.3791C3.16965 13.4383 2.82921 13.7259 2.70086 14.1201C2.57251 14.5142 2.67993 14.9466 2.97576 15.2361L5.15585 17.3615H5.15494ZM7.47065 15.014C7.82475 14.9621 8.1315 14.74 8.28989 14.4186L8.91433 13.1525L9.53877 14.4177C9.69716 14.7391 10.0039 14.9621 10.358 15.013L11.7553 15.216L10.744 16.2018C10.4873 16.4522 10.3708 16.8117 10.4308 17.1649L10.6693 18.5558L9.41953 17.8995C9.10276 17.7329 8.72409 17.7329 8.40732 17.8995L7.15661 18.5567L7.3951 17.1658C7.45609 16.8126 7.33866 16.4531 7.08197 16.2028L6.07066 15.2169L7.46792 15.014H7.47065Z" fill="#00304D"/>
<path id="Vector_6" d="M31.246 41.1228C30.7435 40.7924 30.069 40.9326 29.7386 41.4351C29.4081 41.9375 29.5483 42.612 30.0508 42.9425C31.0047 43.5696 31.7675 44.4426 32.2555 45.4685C32.4421 45.8599 32.8316 46.0893 33.2385 46.0893C33.3951 46.0893 33.5544 46.0556 33.7055 45.9837C34.248 45.7251 34.4792 45.0761 34.2207 44.5336C33.5617 43.1482 32.5331 41.9694 31.246 41.1238V41.1228Z" fill="#00304D"/>
</g>
</svg>
