<svg width="23" height="23" viewBox="0 0 23 23" fill="none" xmlns="http://www.w3.org/2000/svg">
<path d="M13.6359 4.9446C14.5858 5.12992 15.4588 5.59448 16.1431 6.2788C16.8274 6.96312 17.292 7.83608 17.4773 8.78595M13.6359 1.05463C15.6094 1.27386 17.4497 2.1576 18.8546 3.56075C20.2595 4.9639 21.1456 6.80305 21.3673 8.77623M20.3948 16.5367V19.4542C20.3959 19.725 20.3404 19.9931 20.2319 20.2413C20.1234 20.4894 19.9643 20.7122 19.7647 20.8953C19.5651 21.0784 19.3295 21.2178 19.0729 21.3046C18.8163 21.3913 18.5445 21.4236 18.2747 21.3992C15.2822 21.074 12.4077 20.0515 9.88212 18.4136C7.53241 16.9205 5.54026 14.9284 4.04716 12.5787C2.40362 10.0416 1.38082 7.15313 1.0616 4.14716C1.0373 3.87823 1.06926 3.60719 1.15545 3.35129C1.24164 3.09539 1.38016 2.86024 1.56221 2.66082C1.74426 2.46139 1.96583 2.30205 2.21283 2.19295C2.45983 2.08385 2.72684 2.02737 2.99687 2.02712H5.91435C6.38631 2.02247 6.84385 2.1896 7.2017 2.49735C7.55955 2.8051 7.79328 3.23247 7.85933 3.69981C7.98247 4.63347 8.21084 5.5502 8.54008 6.43252C8.67092 6.78059 8.69924 7.15889 8.62168 7.52256C8.54412 7.88624 8.36393 8.22007 8.10246 8.48448L6.86739 9.71954C8.25179 12.1542 10.2677 14.1701 12.7024 15.5545L13.9374 14.3194C14.2018 14.058 14.5357 13.8778 14.8993 13.8002C15.263 13.7227 15.6413 13.751 15.9894 13.8818C16.8717 14.2111 17.7884 14.4394 18.7221 14.5626C19.1945 14.6292 19.6259 14.8672 19.9343 15.2311C20.2427 15.5951 20.4066 16.0598 20.3948 16.5367Z" stroke="#036DA4" stroke-width="1.94499" stroke-linecap="round" stroke-linejoin="round"/>
</svg>
